<?xml version="1.0" encoding="utf-8"?>
<!-- Generator: Adobe Illustrator 21.0.0, SVG Export Plug-In . SVG Version: 6.00 Build 0)  -->
<svg version="1.1" id="Layer_1" xmlns="http://www.w3.org/2000/svg" xmlns:xlink="http://www.w3.org/1999/xlink" x="0px" y="0px"
	 viewBox="0 0 33 33" style="enable-background:new 0 0 33 33;" xml:space="preserve">
<g>
	<path fill="#ffffff" d="M20.7,14.9l-4.6,4.5l1.1,6.3c0,0.1,0,0.2,0,0.3c0,0.3-0.2,0.6-0.5,0.6c-0.2,0-0.4-0.1-0.5-0.2l-5.7-3l-5.7,3
		c-0.1,0-0.3,0.1-0.5,0.1c-0.4,0-0.5-0.3-0.5-0.6c0-0.1,0-0.2,0-0.3l1.1-6.3l-4.6-4.4C0.2,14.7,0,14.5,0,14.2c0-0.4,0.4-0.5,0.7-0.6
		L7,12.8l2.8-5.7c0.2-0.3,0.4-0.6,0.7-0.6S11,6.8,11.1,7l2.9,5.8l6.3,0.9c0.3,0,0.7,0.2,0.7,0.5S20.8,14.7,20.7,14.9z"/>
</g>
</svg>
