<?xml version="1.0" encoding="utf-8"?>
<!-- Generator: Adobe Illustrator 21.0.0, SVG Export Plug-In . SVG Version: 6.00 Build 0)  -->
<svg version="1.1"
	 id="Layer_3" xmlns:cc="http://creativecommons.org/ns#" xmlns:dc="http://purl.org/dc/elements/1.1/" xmlns:rdf="http://www.w3.org/1999/02/22-rdf-syntax-ns#"
	 xmlns="http://www.w3.org/2000/svg" xmlns:xlink="http://www.w3.org/1999/xlink" x="0px" y="0px" viewBox="0 0 185 306"
	 style="enable-background:new 0 0 185 306;" xml:space="preserve">
<g>
	<path id="path27" fill="#ffffff" d="M85,299.5c-0.2,0-0.5,0.1-0.7,0.3c-0.2,0.2-0.4,0.5-0.4,0.8v4.1c0,0.3,0,0.5,0.1,0.8
		c0.1,0.2,0.2,0.4,0.4,0.5c0.2,0.1,0.4,0.2,0.6,0.2h1.2c0.2,0,0.4-0.1,0.6-0.2c0.2-0.2,0.2-0.3,0.3-0.5c0.1-0.3,0.1-0.5,0.1-0.7
		v-4.1c0-0.2,0-0.4-0.2-0.7c-0.2-0.2-0.5-0.3-0.8-0.3L85,299.5L85,299.5z M85.3,300.8h0.5v3.7c0,0.1,0,0.1,0,0.1h-0.5
		c0-0.1,0,0,0-0.1V300.8z"/>
	<path id="path29" fill="#ffffff" d="M89.1,299.5c-0.6,0-1,0.4-1,1v4.1c0,0.3,0,0.5,0.1,0.8c0,0.1,0.1,0.3,0.3,0.4
		c0.2,0.1,0.4,0.2,0.6,0.2h1.3c0.2,0,0.5-0.1,0.6-0.3c0.1-0.2,0.2-0.3,0.2-0.4c0.1-0.2,0-0.4,0-0.7v-4.1c0-0.2-0.1-0.5-0.3-0.7
		c-0.2-0.2-0.5-0.3-0.7-0.3L89.1,299.5L89.1,299.5z M89.4,300.8h0.5v3.7c0,0.1,0,0.1,0,0.1h-0.5c0-0.1,0,0,0-0.1V300.8z"/>
	<path id="line69" fill="#ffffff" d="M183,14.9v2.5h1.3v-2.5H183z"/>
	<g>
		<path id="path3" fill="#ffffff" d="M31.3,184.2c-1.7,0-3.2,1.4-3.2,3.2v11.2c0,0,0,0,0,0H16.9c-1.7,0-3.2,1.4-3.2,3.2v12.1
			c0,1.7,1.4,3.2,3.2,3.2h11.2c0,0,0,0,0,0v11.2c0,1.7,1.4,3.2,3.2,3.2h12.1c1.7,0,3.2-1.4,3.2-3.2V217c0-0.1,0,0,0,0h11.2
			c1.7,0,3.2-1.4,3.2-3.2v-12.1c0-1.7-1.4-3.2-3.2-3.2H46.6c0,0,0,0,0,0v-11.2c0-1.7-1.4-3.2-3.2-3.2L31.3,184.2L31.3,184.2z
			 M31.3,185.5h12.1c1,0,1.8,0.8,1.8,1.8v11.3c0,0.4,0.2,0.8,0.5,1c0.3,0.2,0.6,0.3,0.9,0.3h11.2c1,0,1.8,0.8,1.8,1.8v12.1
			c0,1-0.8,1.8-1.8,1.8H46.6c-0.4,0-0.8,0.1-1,0.4c-0.3,0.3-0.3,0.7-0.3,1v11.2c0,1-0.8,1.8-1.8,1.8H31.3c-1,0-1.8-0.8-1.8-1.8V217
			c0-0.3,0-0.6-0.2-0.9c-0.2-0.3-0.7-0.5-1.1-0.5H16.9c-1,0-1.8-0.8-1.8-1.8v-12.1c0-1,0.8-1.8,1.8-1.8h11.3c0.3,0,0.7-0.1,0.9-0.4
			c0.3-0.3,0.3-0.7,0.3-1v-11.2C29.5,186.3,30.3,185.5,31.3,185.5L31.3,185.5z"/>
		<path id="path5" fill="#ffffff" d="M32.8,185.6c-1.7,0-3.2,1.4-3.2,3.2V200c0,0,0,0,0,0H18.4c-1.7,0-3.2,1.4-3.2,3.2v9.2
			c0,1.7,1.4,3.2,3.2,3.2h11.2c0,0,0,0,0,0v11.2c0,1.7,1.4,3.2,3.2,3.2H42c1.7,0,3.1-1.4,3.1-3.2v-11.2c0-0.1,0,0,0,0h11.2
			c1.7,0,3.2-1.4,3.2-3.2v-9.2c0-1.7-1.4-3.2-3.2-3.2H45.2c0,0,0,0,0,0v-11.2c0-1.7-1.4-3.2-3.1-3.2L32.8,185.6L32.8,185.6z
			 M32.8,186.9H42c1,0,1.8,0.8,1.8,1.8v11.3c0,0.4,0.2,0.8,0.5,1c0.3,0.2,0.6,0.3,0.9,0.3h11.2c1,0,1.8,0.8,1.8,1.8v9.2
			c0,1-0.8,1.8-1.8,1.8H45.2c-0.4,0-0.8,0.1-1,0.4c-0.3,0.3-0.3,0.7-0.3,1v11.2c0,1-0.8,1.8-1.8,1.8h-9.3c-1,0-1.8-0.8-1.8-1.8
			v-11.2c0-0.3,0-0.6-0.2-0.9c-0.2-0.3-0.7-0.5-1.1-0.5H18.4c-1,0-1.8-0.8-1.8-1.8v-9.2c0-1,0.8-1.8,1.8-1.8h11.3
			c0.3,0,0.7-0.1,1-0.4c0.3-0.3,0.3-0.7,0.3-1v-11.2C30.9,187.8,31.8,186.9,32.8,186.9L32.8,186.9z"/>
		<path id="path7" fill="#ffffff" d="M74.1,245.2c-0.5,0-0.9,0.1-1.4,0.3l-15.3,7.3c-1.8,0.9-2.5,3-1.7,4.8c0.9,1.8,3,2.5,4.8,1.7
			l15.3-7.3c1.8-0.9,2.6-3,1.7-4.8C76.8,245.9,75.5,245.2,74.1,245.2L74.1,245.2z M74.1,246.6c0.9,0,1.8,0.4,2.2,1.3
			c0.5,1.1,0.1,2.5-1.1,3l-15.3,7.3c-1.1,0.5-2.5,0.1-3-1.1c-0.5-1.1-0.1-2.5,1.1-3l15.3-7.3C73.5,246.6,73.8,246.6,74.1,246.6
			L74.1,246.6z"/>
		<path id="path9" fill="#ffffff" d="M74,242.8c-0.8,0-1.7,0.2-2.4,0.5L56.4,250c-3.2,1.4-4.6,5.2-3.2,8.4c1.4,3.2,5.2,4.6,8.4,3.2
			l15-6.7c3.2-1.4,4.6-5.2,3.2-8.4C78.8,244.1,76.4,242.7,74,242.8L74,242.8z M74,244.1c2,0,3.8,1.1,4.7,3c1.1,2.5,0,5.5-2.5,6.6
			l-15,6.7c-2.5,1.1-5.5,0-6.6-2.5c-1.1-2.5,0-5.5,2.5-6.6l15-6.7C72.7,244.2,73.3,244.1,74,244.1L74,244.1z"/>
		<path id="path11" fill="#ffffff" d="M105.9,245.2c-0.5,0-0.9,0.1-1.4,0.3l-15.3,7.3c-1.8,0.9-2.5,3-1.7,4.8c0.9,1.8,3,2.5,4.8,1.7
			l15.3-7.3c1.8-0.9,2.5-3,1.7-4.8C108.6,245.9,107.3,245.2,105.9,245.2L105.9,245.2z M105.9,246.6c0.9,0,1.8,0.4,2.2,1.3
			c0.5,1.1,0.1,2.5-1.1,3l-15.3,7.3c-1.1,0.5-2.5,0.1-3-1.1c-0.5-1.1-0.1-2.5,1.1-3l15.3-7.3C105.4,246.6,105.6,246.6,105.9,246.6
			L105.9,246.6z"/>
		<path id="path13" fill="#ffffff" d="M105.8,242.8c-0.8,0-1.7,0.2-2.4,0.5L88.3,250c-3.2,1.4-4.6,5.2-3.2,8.4c1.4,3.2,5.2,4.6,8.4,3.2
			l15.1-6.7c3.2-1.4,4.6-5.2,3.2-8.4C110.6,244.1,108.2,242.7,105.8,242.8L105.8,242.8z M105.8,244.1c1.9,0,3.8,1.1,4.7,3
			c1.1,2.5,0,5.5-2.5,6.6l-15.1,6.7c-2.5,1.1-5.5,0-6.6-2.5c-1.1-2.5,0-5.5,2.5-6.6l15.1-6.7C104.5,244.2,105.1,244.1,105.8,244.1
			L105.8,244.1z"/>
		<path id="path15" fill="#ffffff" d="M115.7,271.4c-0.4,0-0.7,0.1-1.1,0.3c-1.4,0.7-1.9,2.5-1.1,3.8l12.7,23.1
			c0.7,1.4,2.4,1.9,3.8,1.1c1.4-0.7,1.9-2.4,1.1-3.8l-12.7-23.2C117.9,271.8,116.8,271.2,115.7,271.4L115.7,271.4z M116.4,272.7
			c0.4,0.1,0.7,0.4,0.9,0.7l12.7,23.2c0.4,0.7,0.1,1.6-0.6,2c-0.7,0.4-1.6,0.1-2-0.6l-12.7-23.2c-0.4-0.7-0.2-1.6,0.6-2
			C115.6,272.7,116,272.6,116.4,272.7L116.4,272.7z"/>
		<path id="path17" fill="#ffffff" d="M124.8,266.4c-0.4,0-0.7,0.1-1.1,0.3c-1.4,0.7-1.9,2.5-1.1,3.8l12.7,23.1
			c0.7,1.4,2.5,1.9,3.8,1.1c1.4-0.7,1.9-2.5,1.1-3.8l-12.7-23.2C127,266.8,125.9,266.2,124.8,266.4L124.8,266.4z M125.5,267.7
			c0.4,0.1,0.7,0.4,0.9,0.7l12.7,23.2c0.4,0.7,0.1,1.6-0.6,2c-0.7,0.4-1.6,0.1-2-0.6l-12.7-23.2c-0.4-0.7-0.1-1.6,0.6-2
			C124.7,267.7,125.1,267.6,125.5,267.7L125.5,267.7z"/>
		<path id="path19" fill="#ffffff" d="M133.9,261.4c-0.4,0-0.7,0.1-1.1,0.3c-1.4,0.7-1.9,2.5-1.1,3.8l12.7,23.2
			c0.7,1.3,2.4,1.8,3.8,1.1c0,0,0,0,0,0c1.3-0.7,1.8-2.4,1.1-3.8l-12.7-23.2C136.1,261.8,135,261.3,133.9,261.4L133.9,261.4z
			 M134.6,262.7c0.4,0.1,0.7,0.4,0.9,0.7l12.7,23.2c0.4,0.7,0.2,1.6-0.6,2c-0.7,0.4-1.6,0.1-2-0.6l-12.7-23.2
			c-0.4-0.7-0.1-1.6,0.6-2C133.9,262.7,134.2,262.6,134.6,262.7L134.6,262.7z"/>
		<path id="path21" fill="#ffffff" d="M143,256.4c-0.4,0-0.7,0.1-1.1,0.3c-1.4,0.7-1.9,2.5-1.1,3.8l12.7,23.2c0.7,1.4,2.5,1.9,3.8,1.1
			c1.4-0.7,1.9-2.5,1.1-3.8l-12.7-23.2C145.2,256.8,144.1,256.2,143,256.4L143,256.4z M143.7,257.7c0.4,0.1,0.7,0.3,0.9,0.7
			l12.7,23.2c0.4,0.7,0.1,1.6-0.6,2c-0.7,0.4-1.6,0.1-2-0.6L142,259.8c-0.4-0.7-0.1-1.6,0.6-2C143,257.7,143.4,257.6,143.7,257.7
			L143.7,257.7z"/>
		<path id="path23" fill="#ffffff" d="M152.1,251.4c-0.4,0-0.7,0.2-1,0.3c0,0,0,0,0,0v0c-1.3,0.7-1.8,2.4-1.1,3.8l12.7,23.2
			c0.7,1.4,2.5,1.9,3.8,1.1c1.3-0.7,1.9-2.5,1.1-3.8l-12.7-23.1C154.3,251.8,153.2,251.2,152.1,251.4L152.1,251.4z M152.9,252.7
			c0.4,0.1,0.7,0.3,0.9,0.7l12.7,23.2c0.4,0.7,0.2,1.6-0.6,2c-0.7,0.4-1.6,0.1-2-0.6l-12.7-23.1c-0.4-0.7-0.2-1.6,0.6-2
			C152.1,252.7,152.5,252.6,152.9,252.7L152.9,252.7z"/>
		<path id="path25" fill="#ffffff" d="M161.3,246.3c-0.4,0-0.7,0.1-1.1,0.3c-1.4,0.7-1.9,2.5-1.1,3.8l12.7,23.1
			c0.7,1.4,2.5,1.9,3.8,1.1c1.4-0.7,1.9-2.5,1.1-3.8L164,247.8C163.5,246.8,162.4,246.2,161.3,246.3L161.3,246.3z M162,247.7
			c0.4,0.1,0.7,0.4,0.9,0.7l12.7,23.2c0.4,0.7,0.1,1.6-0.6,2c-0.7,0.4-1.6,0.1-2-0.6l-12.7-23.1c-0.4-0.7-0.1-1.6,0.6-2
			C161.2,247.7,161.6,247.6,162,247.7L162,247.7z"/>
		<path id="path31" fill="#ffffff" d="M1.3,16.8c-0.4,0-0.9,0.3-1.1,0.6C0,17.7,0,18.1,0,18.4v280.3c0,4,3.3,7.3,7.3,7.3h74.3
			c0.4,0,0.7-0.2,0.9-0.5c0.2-0.3,0.2-0.6,0.2-0.9v-4.1c0-0.2-0.1-0.5-0.3-0.7c-0.2-0.2-0.5-0.3-0.8-0.3H71c-1.9,0-3.5-1.5-3.5-3.4
			c0-1.9,1.5-3.5,3.5-3.5h21.3c1.9,0,3.5,1.5,3.5,3.5c0,1.6-1.1,3-2.6,3.3v0c-0.3,0.1-0.5,0.3-0.6,0.5c-0.1,0.2-0.1,0.4-0.1,0.6v4.1
			c0,0.2,0,0.4,0.1,0.7c0,0.2,0.1,0.4,0.3,0.5c0.2,0.1,0.4,0.2,0.6,0.2H143c23.2,0,42-18.8,42-42.1V18.2c0-0.3-0.1-0.6-0.3-0.9
			c-0.2-0.3-0.6-0.5-1-0.5L1.3,16.8L1.3,16.8z M1.4,18.1h182.3c0,0,0,0,0,0.1v245.8c0,22.5-18.2,40.7-40.7,40.7H93.8
			c0-0.1,0,0,0-0.1v-4c1.9-0.6,3.3-2.4,3.3-4.5c0-2.6-2.2-4.8-4.8-4.8H71c-2.6,0-4.8,2.2-4.8,4.8c0,2.6,2.2,4.8,4.8,4.8h10.3v3.7
			c0,0.1,0,0.1,0,0.1H7.3c-3.3,0-6-2.7-6-6V18.4C1.3,18.3,1.4,18.2,1.4,18.1L1.4,18.1z"/>
		<path id="circle33" fill="#ffffff" d="M129.4,199.6c-6.8,0-12.4,5.6-12.4,12.4c0,6.8,5.5,12.4,12.4,12.4c6.8,0,12.4-5.6,12.4-12.4
			C141.8,205.2,136.2,199.6,129.4,199.6z M129.4,201c6.1,0,11,4.9,11,11c0,6.1-4.9,11-11,11c-6.1,0-11-4.9-11-11
			C118.4,205.9,123.3,201,129.4,201z"/>
		<path id="circle35" fill="#ffffff" d="M129.4,200.5c-6.4,0-11.5,5.2-11.5,11.5c0,6.4,5.2,11.5,11.5,11.5c6.4,0,11.5-5.2,11.5-11.5
			S135.8,200.5,129.4,200.5z M129.4,201.8c5.6,0,10.2,4.6,10.2,10.2c0,5.6-4.5,10.2-10.2,10.2c-5.6,0-10.2-4.6-10.2-10.2
			S123.8,201.8,129.4,201.8z"/>
		<path id="circle37" fill="#ffffff" d="M159.9,185.6c-6.8,0-12.4,5.6-12.4,12.4c0,6.8,5.5,12.4,12.4,12.4c6.8,0,12.4-5.5,12.4-12.4
			C172.3,191.2,166.8,185.6,159.9,185.6z M159.9,187c6.1,0,11,4.9,11,11c0,6.1-4.9,11-11,11s-11-4.9-11-11
			C148.9,191.9,153.8,187,159.9,187z"/>
		<path id="circle39" fill="#ffffff" d="M159.9,186.5c-6.4,0-11.5,5.2-11.5,11.5c0,6.4,5.2,11.5,11.5,11.5c6.4,0,11.5-5.2,11.5-11.5
			S166.3,186.5,159.9,186.5z M159.9,187.8c5.6,0,10.2,4.6,10.2,10.2c0,5.6-4.5,10.2-10.2,10.2c-5.6,0-10.2-4.6-10.2-10.2
			C149.8,192.4,154.3,187.8,159.9,187.8z"/>
		<path id="path41" fill="#ffffff" d="M20.6,25.3c-3.9,0-7.1,3.2-7.1,7.1v105c0,3.9,3.2,7.1,7.1,7.1h126.3c6,0,11.9-3,16.4-7.6
			c4.5-4.5,7.5-10.6,7.5-16.7V32.4c0-3.9-3.2-7.1-7.1-7.1L20.6,25.3L20.6,25.3z M20.6,26.6h143.2c3.2,0,5.7,2.6,5.7,5.7v87.8
			c0,5.7-2.9,11.5-7.1,15.8c-4.3,4.3-9.9,7.2-15.5,7.2H20.6c-3.2,0-5.7-2.6-5.7-5.7v-105C14.9,29.2,17.4,26.6,20.6,26.6L20.6,26.6z"
			/>
		<path id="path43" fill="#ffffff" d="M44.2,38.8c-1,0-1.7,0.8-1.7,1.7v88.2c0,1,0.8,1.7,1.7,1.7h96.9c1,0,1.7-0.8,1.7-1.7V40.6
			c0-1-0.8-1.7-1.7-1.7C141.1,38.8,44.2,38.8,44.2,38.8z M44.2,40.2h96.9c0.2,0,0.4,0.2,0.4,0.4v88.2c0,0.2-0.2,0.4-0.4,0.4H44.2
			c-0.2,0-0.4-0.2-0.4-0.4V40.6C43.8,40.3,44,40.2,44.2,40.2z"/>
		<path id="circle45" fill="#ffffff" d="M26.4,66.8c-1.9,0-3.4,1.5-3.4,3.4s1.5,3.4,3.4,3.4c1.9,0,3.4-1.5,3.4-3.4S28.3,66.8,26.4,66.8
			z"/>
		<path id="path47" fill="#ffffff" d="M27.8,0c-0.2,0-0.5,0.1-0.6,0.3C27.1,0.4,27,0.5,27,0.7c-0.1,0.2-0.1,0.4-0.1,0.6v3
			c0,0.2,0.1,0.5,0.3,0.7c0.2,0.2,0.5,0.3,0.7,0.3H29c0.6,0,1-0.4,1-1v-3c0-0.2,0-0.5-0.1-0.7C29.8,0.2,29.4,0,29.1,0L27.8,0L27.8,0
			z M28.3,1.3h0.5v2.6h-0.5V1.3z"/>
		<path id="path49" fill="#ffffff" d="M31.9,0c-0.2,0-0.5,0.1-0.6,0.3c-0.1,0.1-0.2,0.3-0.2,0.4c-0.1,0.2-0.1,0.4-0.1,0.6v3
			c0,0.2,0.1,0.4,0.3,0.6s0.5,0.3,0.8,0.3h1.1c0.2,0,0.5-0.1,0.7-0.2c0.2-0.2,0.4-0.5,0.4-0.8v-3c0-0.2,0-0.4-0.1-0.7
			C34,0.3,33.6,0,33.2,0L31.9,0L31.9,0z M32.4,1.3h0.5v2.6h-0.5V1.3z"/>
		<path id="path51" fill="#ffffff" d="M17.6,0c-0.4,0-0.8,0.2-1.1,0.5c-0.2,0.3-0.3,0.6-0.3,0.9v13c0,0.6,0.5,1.1,1.1,1.1h150.3
			c0.4,0,0.7-0.3,0.8-0.6c0.1-0.3,0.2-0.5,0.2-0.9V1.5c0-0.4-0.1-0.9-0.4-1.2c-0.3-0.3-0.7-0.4-1-0.4H36.5c-0.3,0-0.7,0.1-0.9,0.4
			c-0.2,0.3-0.2,0.6-0.2,0.8v3c0,0.2,0.1,0.5,0.3,0.7c0.2,0.2,0.5,0.3,0.7,0.3h16.3c1.9,0,3.5,1.5,3.5,3.5c0,1.9-1.5,3.5-3.5,3.5
			h-27c-1.9,0-3.5-1.5-3.5-3.5c0-1.6,1.1-3,2.6-3.4c0.3-0.1,0.5-0.3,0.6-0.5c0.1-0.2,0.1-0.4,0.1-0.6v-3c0-0.3-0.1-0.6-0.3-0.8
			C25.2,0.2,24.9,0,24.5,0L17.6,0L17.6,0L17.6,0z M167.2,1.3c0,0,0,0,0,0.2V14c0,0.1,0,0.1,0,0.2H17.5V1.4c0,0,0-0.1,0-0.1
			c0,0,0,0,0,0h6.7v2.8C22.4,4.8,21,6.6,21,8.7c0,2.6,2.2,4.8,4.8,4.8h27c2.6,0,4.8-2.2,4.8-4.8c0-2.6-2.2-4.8-4.8-4.8h-16V1.3
			L167.2,1.3C167.3,1.3,167.3,1.4,167.2,1.3C167.2,1.3,167.2,1.3,167.2,1.3z"/>
		<path id="path53" fill="#ffffff" d="M8.2,0C3.7,0,0,3.7,0,8.2v6.1c0,0.3,0.1,0.7,0.4,0.9c0.3,0.2,0.6,0.3,0.9,0.3h12.3
			c0.6,0,1.1-0.5,1.1-1.1v-13c0-0.3-0.1-0.7-0.3-0.9S13.9,0,13.4,0L8.2,0L8.2,0z M8.2,1.3h5.1c0,0,0,0.1,0,0.1v12.8H1.3V8.2
			C1.3,4.4,4.4,1.3,8.2,1.3L8.2,1.3z"/>
		<path id="path55" fill="#ffffff" d="M171.6,0c-0.4,0-0.8,0.2-1,0.5s-0.3,0.6-0.3,0.9v13c0,0.6,0.5,1.1,1.1,1.1h12.3
			c0.3,0,0.6,0,0.9-0.3c0.3-0.2,0.4-0.6,0.4-0.9V8.2c0-4.5-3.7-8.2-8.2-8.2L171.6,0L171.6,0z M171.6,1.3h5.2c3.8,0,6.9,3.1,6.9,6.9
			v5.9h-12.1L171.6,1.3C171.6,1.4,171.6,1.4,171.6,1.3z"/>
		<path id="line57" fill="#ffffff" d="M0.4,14.8v2.6h1.3v-2.6H0.4z"/>
		<path id="line59" fill="#ffffff" d="M14,1v1.3h2.8V1H14z"/>
		<path id="line61" fill="#ffffff" d="M24.9,1v1.3h2.8V1H24.9z"/>
		<path id="line63" fill="#ffffff" d="M29.4,1v1.3h2.5V1H29.4z"/>
		<path id="line65" fill="#ffffff" d="M33.6,1v1.3h2.5V1H33.6z"/>
		<path id="line67" fill="#ffffff" d="M168.1,1v1.3h2.8V1H168.1z"/>
		<path id="polygon71" fill="#ffffff" d="M28.2,6.3l-0.5,0.3l-3.2,1.7L24,8.6l0.5,0.3l3.2,1.7l0.5,0.3v-0.6V6.9V6.3L28.2,6.3z"/>
		<path id="polygon73" fill="#ffffff" d="M50.7,6.3v0.6v3.5v0.6l0.5-0.3l3.2-1.7l0.5-0.3l-0.5-0.3l-3.2-1.7L50.7,6.3z"/>
		<path id="circle75" fill="#ffffff" d="M37.4,201.3c-3.6,0-6.5,2.9-6.5,6.5s2.9,6.5,6.5,6.5c3.6,0,6.5-2.9,6.5-6.5
			S41,201.3,37.4,201.3z M37.4,202.7c2.8,0,5.1,2.3,5.1,5.1c0,2.8-2.3,5.2-5.1,5.2c-2.8,0-5.2-2.3-5.2-5.2
			C32.2,204.9,34.5,202.7,37.4,202.7z"/>
	</g>
</g>
</svg>
